<svg xmlns="http://www.w3.org/2000/svg" xmlns:xlink="http://www.w3.org/1999/xlink" viewBox="0 0 1252 262">
  <defs>
    <clipPath id="a">
      <path d="M125.00336,259.33282a7.70161,7.70161,0,0,0,6.943,0l68.21673-39.385a7.7016,7.7016,0,0,0,3.47148-6.01278l0-165.55683a7.70158,7.70158,0,0,0-3.47147-6.01277l-68.21674-39.385a7.70159,7.70159,0,0,0-6.94295,0l-68.21673,39.385a7.70157,7.70157,0,0,0-3.47148,6.01277l0,165.55683a7.7016,7.7016,0,0,0,3.47148,6.01278Z" fill="none"/>
    </clipPath>
    <linearGradient id="b" x1="54.79703" y1="213.75782" x2="127.59733" y2="91.03627" gradientUnits="userSpaceOnUse">
      <stop offset="0" stop-color="#0a80bc"/>
      <stop offset="0.08964" stop-color="#0e83c1"/>
      <stop offset="0.65417" stop-color="#2590d9"/>
      <stop offset="1" stop-color="#2d95e2"/>
    </linearGradient>
  </defs>
  <g>
    <g>
      <path d="M374.11063,95.13992H334.79276v31.61572h36.23681v14.74414H334.79276v44.0127h-17.458V80.32254h56.77588Z"/>
      <path d="M408.00028,185.51248H390.909V74.3074h17.09131Z"/>
      <path d="M495.65848,185.51248H478.64041V173.62869H478.347q-7.40991,13.645-23.03321,13.64453-26.62719,0-26.62744-31.98242V110.39773h17.01807v43.13233q0,20.24561,15.62451,20.24609a15.79083,15.79083,0,0,0,12.43359-5.57519q4.87721-5.57375,4.87793-14.59766V110.39773h17.01807Z"/>
      <path d="M581.40946,152.57693H530.20828q.29151,10.41651,6.418,16.06445,6.12451,5.64845,16.835,5.64747a37.12476,37.12476,0,0,0,22.08008-7.18848v13.71777q-10.27148,6.45557-27.1416,6.45508-16.5791,0-26.00391-10.2334-9.42627-10.23193-9.42578-28.791,0-17.53125,10.37891-28.57178a33.95438,33.95438,0,0,1,25.78418-11.03955q15.40429,0,23.84082,9.90283,8.43457,9.90234,8.43555,27.50732Zm-16.43164-12.03027q-.07324-9.16918-4.32813-14.26758-4.25536-5.09766-11.73633-5.09814a16.517,16.517,0,0,0-12.43359,5.355q-5.09913,5.35547-6.27149,14.01074Z"/>
      <path d="M664.51981,185.51248H647.50125v-42.3252q0-21.052-14.89062-21.05273a16.25734,16.25734,0,0,0-12.83692,5.83154q-5.061,5.83155-5.06152,14.70752v42.83887h-17.0918V110.39773h17.0918V122.868h.293q8.436-14.23023,24.35449-14.23047,12.249,0,18.70508,7.959,6.4541,7.96,6.45508,22.9961Z"/>
      <path d="M724.88993,184.70584Q719.90066,187.199,711.76,187.2q-21.85986,0-21.85937-20.97949V123.74832H677.35672V110.39773h12.54395V93.013l17.01758-4.84131v22.22607h17.97168v13.35059H706.91825v37.55713q0,6.67675,2.42089,9.53613,2.41994,2.86085,8.06934,2.86133a11.69644,11.69644,0,0,0,7.48145-2.49414Z"/>
      <path d="M782.76688,185.51248V80.32254h33.376q15.25782,0,24.1709,6.67529,8.91212,6.676,8.91211,17.38477a24.81831,24.81831,0,0,1-5.06152,15.55127A27.306,27.306,0,0,1,830.1536,129.323v.29345q10.856,1.248,17.34863,8.03223,6.49218,6.78588,6.49219,17.64209a26.49777,26.49777,0,0,1-10.63672,21.85937q-10.63623,8.3628-26.84766,8.36231Zm17.38476-91.1792V124.2615h11.29688q9.09522,0,14.26758-4.291,5.17089-4.29126,5.17187-12.14014,0-13.4956-18.0459-13.49707Zm0,43.939V171.575h14.89161q9.7544,0,15.07421-4.51074,5.31739-4.51173,5.31836-12.4336,0-16.3579-22.667-16.3584Z"/>
      <path d="M888.68973,185.51248h-17.0918V74.3074h17.0918Z"/>
      <path d="M944.14578,187.27322q-17.38476,0-27.76464-10.52637-10.37989-10.5249-10.37891-27.91113,0-18.92579,10.81934-29.562,10.81934-10.63549,29.1582-10.63623,17.606,0,27.43457,10.34277,9.8291,10.34326,9.8291,28.68164,0,17.97217-10.59961,28.791Q962.04423,187.27372,944.14578,187.27322Zm.80762-65.06543q-9.97706,0-15.77148,6.96875-5.79492,6.96974-5.79492,19.21875,0,11.811,5.86816,18.5957,5.86816,6.78516,15.69824,6.78516,10.04883,0,15.44043-6.67578,5.3921-6.67383,5.3916-18.99805,0-12.39624-5.3916-19.146Q955.00321,122.20852,944.9534,122.20779Z"/>
      <path d="M1054.32352,182.06521q-9.022,5.20752-21.3457,5.208-16.72413,0-26.99414-10.45312-10.27149-10.45312-10.26954-27.1045,0-18.55737,11.04-29.81836,11.03907-11.25951,29.52442-11.25976a43.11045,43.11045,0,0,1,18.11816,3.59424V128.076a27.44463,27.44463,0,0,0-16.72461-5.86817q-10.78271,0-17.67773,7.29883-6.89649,7.3-6.89551,19.1084,0,11.66309,6.49219,18.41211,6.49072,6.75,17.4209,6.749,9.16845,0,17.31152-6.5293Z"/>
      <path d="M1139.3411,185.51248h-21.56641l-29.19531-36.08985h-.293v36.08985h-17.0918V74.3074h17.0918v70.49316h.293l27.582-34.40283h20.46582l-31.0293,36.23682Z"/>
      <path d="M1145.35672,183.16482V167.39431a33.9496,33.9496,0,0,0,21.05274,7.26172q15.4043,0,15.40429-9.0957a7.17614,7.17614,0,0,0-1.32031-4.36523,12.62325,12.62325,0,0,0-3.55762-3.19043,28.03875,28.03875,0,0,0-5.28125-2.49414q-3.04541-1.1001-6.78613-2.49415a71.53325,71.53325,0,0,1-8.32519-3.88769,25.12774,25.12774,0,0,1-6.16211-4.6582,17.56248,17.56248,0,0,1-3.70411-5.90479,21.72865,21.72865,0,0,1-1.24707-7.70215,17.802,17.802,0,0,1,2.56739-9.57275,22.312,22.312,0,0,1,6.8955-6.96875,33.08879,33.08879,0,0,1,9.82911-4.2544,44.99739,44.99739,0,0,1,11.37011-1.43017,51.6966,51.6966,0,0,1,18.63184,3.1543V126.6824a31.41335,31.41335,0,0,0-18.19141-5.42822,23.76193,23.76193,0,0,0-5.832.66015,15.06244,15.06244,0,0,0-4.4375,1.834,9.01238,9.01238,0,0,0-2.86133,2.82422,6.72946,6.72946,0,0,0-1.02636,3.63086,7.75064,7.75064,0,0,0,1.02636,4.10791,9.31131,9.31131,0,0,0,3.04395,2.9707,26.21446,26.21446,0,0,0,4.8418,2.34766q2.82274,1.06494,6.49218,2.31054a95.1361,95.1361,0,0,1,8.69239,4.03418,29.453,29.453,0,0,1,6.56543,4.65821,18.28423,18.28423,0,0,1,4.18066,6.01464,20.43814,20.43814,0,0,1,1.4668,8.10645,18.52267,18.52267,0,0,1-2.64063,9.97559,21.99553,21.99553,0,0,1-7.042,7.042,32.92972,32.92972,0,0,1-10.15918,4.14453,52.80913,52.80913,0,0,1-12.14062,1.35742Q1154.38015,187.27322,1145.35672,183.16482Z"/>
    </g>
    <g clip-path="url(#a)">
      <g>
        <polygon points="203.635 217.943 203.635 44.37 128.475 0.976 53.315 44.37 53.315 218.05 128.475 261.337 203.635 217.943" fill="#005a9e"/>
        <polygon points="53.315 44.37 128.475 87.763 203.635 44.37 128.475 0.976 53.315 44.37" fill="#2b88d8"/>
        <polygon points="128.475 261.443 128.475 87.763 53.315 44.37 53.315 218.05 128.475 261.443" fill="url(#b)"/>
        <polygon points="128.475 87.763 203.635 131.157 128.475 174.55 128.475 87.763" fill="#106ebe"/>
        <polygon points="128.475 174.55 203.635 217.944 128.475 261.337 128.475 174.55" fill="#106ebe"/>
      </g>
    </g>
  </g>
</svg>
