<svg xmlns="http://www.w3.org/2000/svg" xmlns:xlink="http://www.w3.org/1999/xlink" viewBox="0 0 600 600">
  <defs>
    <clipPath id="a">
      <path d="M292.19605,588.14144a17.31325,17.31325,0,0,0,15.60784,0l153.352-88.53782a17.31328,17.31328,0,0,0,7.80392-13.51679l.00005-372.17366a17.31325,17.31325,0,0,0-7.80392-13.51679L307.804,11.85856a17.31325,17.31325,0,0,0-15.60784,0l-153.352,88.53782a17.31328,17.31328,0,0,0-7.80392,13.51679l0,372.17366a17.31325,17.31325,0,0,0,7.80392,13.51679Z" fill="none"/>
    </clipPath>
    <linearGradient id="b" x1="134.3714" y1="485.68833" x2="298.02731" y2="209.80885" gradientUnits="userSpaceOnUse">
      <stop offset="0" stop-color="#0a80bc"/>
      <stop offset="0.08964" stop-color="#0e83c1"/>
      <stop offset="0.65417" stop-color="#2590d9"/>
      <stop offset="1" stop-color="#2d95e2"/>
    </linearGradient>
  </defs>
  <g clip-path="url(#a)">
    <g>
      <polygon points="468.96 495.098 468.96 104.902 300 7.353 131.04 104.902 131.04 495.336 300 592.647 468.96 495.098" fill="#005a9e"/>
      <polygon points="131.04 104.902 300 202.451 468.96 104.902 300 7.353 131.04 104.902" fill="#2b88d8"/>
      <polygon points="300 592.885 300 202.451 131.04 104.902 131.04 495.336 300 592.885" fill="url(#b)"/>
      <polygon points="300 202.451 468.96 300 300 397.549 300 202.451" fill="#106ebe"/>
      <polygon points="300 397.549 468.96 495.098 300 592.647 300 397.549" fill="#106ebe"/>
    </g>
  </g>
</svg>
