<svg width="429" height="83" viewBox="0 0 429 83" fill="none" xmlns="http://www.w3.org/2000/svg"><g clip-path="url(#clip0)"><path d="M22.1562 1.06277L1.84846 12.7679C0.704757 13.4271 0 14.6468 0 15.9669V67.0331C0 68.3532 0.704757 69.5729 1.84846 70.2321L21.2319 81.4045C22.4627 82.1139 24 81.2256 24 79.805V55.3333L45.225 43.0995C46.4573 42.3892 46.4573 40.6108 45.225 39.9005L24 27.6667L45.225 15.4328C46.4573 14.7225 46.4573 12.9441 45.225 12.2339L25.8438 1.06277C24.7026 0.40498 23.2974 0.404979 22.1562 1.06277Z" fill="black"/><path d="M103.273 31.5547H91.4141V39.8047H102.312V45.9453H91.4141V59H83.8438V25.3906H103.273V31.5547ZM115.508 59H108.102V23.4688H115.508V59ZM144.547 59H137.164V55.3438H137.047C135.219 58.1719 132.773 59.5859 129.711 59.5859C124.148 59.5859 121.367 56.2188 121.367 49.4844V35H128.75V48.8281C128.75 52.2188 130.094 53.9141 132.781 53.9141C134.109 53.9141 135.172 53.4531 135.969 52.5312C136.766 51.5938 137.164 50.3281 137.164 48.7344V35H144.547V59ZM172.367 49.1094H156.711C156.961 52.5938 159.156 54.3359 163.297 54.3359C165.938 54.3359 168.258 53.7109 170.258 52.4609V57.8047C168.039 58.9922 165.156 59.5859 161.609 59.5859C157.734 59.5859 154.727 58.5156 152.586 56.375C150.445 54.2188 149.375 51.2188 149.375 47.375C149.375 43.3906 150.531 40.2344 152.844 37.9062C155.156 35.5781 158 34.4141 161.375 34.4141C164.875 34.4141 167.578 35.4531 169.484 37.5312C171.406 39.6094 172.367 42.4297 172.367 45.9922V49.1094ZM165.5 44.5625C165.5 41.125 164.109 39.4062 161.328 39.4062C160.141 39.4062 159.109 39.8984 158.234 40.8828C157.375 41.8672 156.852 43.0938 156.664 44.5625H165.5ZM199.953 59H192.57V45.6641C192.57 41.9453 191.242 40.0859 188.586 40.0859C187.305 40.0859 186.25 40.5781 185.422 41.5625C184.594 42.5469 184.18 43.7969 184.18 45.3125V59H176.773V35H184.18V38.7969H184.273C186.039 35.875 188.609 34.4141 191.984 34.4141C197.297 34.4141 199.953 37.7109 199.953 44.3047V59ZM220.344 58.7188C219.25 59.2969 217.602 59.5859 215.398 59.5859C210.18 59.5859 207.57 56.875 207.57 51.4531V40.4609H203.68V35H207.57V29.8203L214.953 27.7109V35H220.344V40.4609H214.953V50.1641C214.953 52.6641 215.945 53.9141 217.93 53.9141C218.711 53.9141 219.516 53.6875 220.344 53.2344V58.7188ZM242.984 46.2969V59H239.047V25.3906H248.281C251.875 25.3906 254.656 26.2656 256.625 28.0156C258.609 29.7656 259.602 32.2344 259.602 35.4219C259.602 38.6094 258.5 41.2188 256.297 43.25C254.109 45.2812 251.148 46.2969 247.414 46.2969H242.984ZM242.984 28.9531V42.7344H247.109C249.828 42.7344 251.898 42.1172 253.32 40.8828C254.758 39.6328 255.477 37.875 255.477 35.6094C255.477 31.1719 252.852 28.9531 247.602 28.9531H242.984ZM280.977 59H277.133V55.25H277.039C275.367 58.125 272.906 59.5625 269.656 59.5625C267.266 59.5625 265.391 58.9297 264.031 57.6641C262.688 56.3984 262.016 54.7188 262.016 52.625C262.016 48.1406 264.656 45.5312 269.938 44.7969L277.133 43.7891C277.133 39.7109 275.484 37.6719 272.188 37.6719C269.297 37.6719 266.688 38.6562 264.359 40.625V36.6875C266.719 35.1875 269.438 34.4375 272.516 34.4375C278.156 34.4375 280.977 37.4219 280.977 43.3906V59ZM277.133 46.8594L271.344 47.6562C269.562 47.9062 268.219 48.3516 267.312 48.9922C266.406 49.6172 265.953 50.7344 265.953 52.3438C265.953 53.5156 266.367 54.4766 267.195 55.2266C268.039 55.9609 269.156 56.3281 270.547 56.3281C272.453 56.3281 274.023 55.6641 275.258 54.3359C276.508 52.9922 277.133 51.2969 277.133 49.25V46.8594ZM299.352 58.7656C298.445 59.2656 297.25 59.5156 295.766 59.5156C291.562 59.5156 289.461 57.1719 289.461 52.4844V38.2812H285.336V35H289.461V29.1406L293.305 27.8984V35H299.352V38.2812H293.305V51.8047C293.305 53.4141 293.578 54.5625 294.125 55.25C294.672 55.9375 295.578 56.2812 296.844 56.2812C297.812 56.2812 298.648 56.0156 299.352 55.4844V58.7656ZM315.617 58.7656C314.711 59.2656 313.516 59.5156 312.031 59.5156C307.828 59.5156 305.727 57.1719 305.727 52.4844V38.2812H301.602V35H305.727V29.1406L309.57 27.8984V35H315.617V38.2812H309.57V51.8047C309.57 53.4141 309.844 54.5625 310.391 55.25C310.938 55.9375 311.844 56.2812 313.109 56.2812C314.078 56.2812 314.914 56.0156 315.617 55.4844V58.7656ZM340.039 47.9609H323.094C323.156 50.6328 323.875 52.6953 325.25 54.1484C326.625 55.6016 328.516 56.3281 330.922 56.3281C333.625 56.3281 336.109 55.4375 338.375 53.6562V57.2656C336.266 58.7969 333.477 59.5625 330.008 59.5625C326.617 59.5625 323.953 58.4766 322.016 56.3047C320.078 54.1172 319.109 51.0469 319.109 47.0938C319.109 43.3594 320.164 40.3203 322.273 37.9766C324.398 35.6172 327.031 34.4375 330.172 34.4375C333.312 34.4375 335.742 35.4531 337.461 37.4844C339.18 39.5156 340.039 42.3359 340.039 45.9453V47.9609ZM336.102 44.7031C336.086 42.4844 335.547 40.7578 334.484 39.5234C333.438 38.2891 331.977 37.6719 330.102 37.6719C328.289 37.6719 326.75 38.3203 325.484 39.6172C324.219 40.9141 323.438 42.6094 323.141 44.7031H336.102ZM358.391 38.8906C357.719 38.375 356.75 38.1172 355.484 38.1172C353.844 38.1172 352.469 38.8906 351.359 40.4375C350.266 41.9844 349.719 44.0938 349.719 46.7656V59H345.875V35H349.719V39.9453H349.812C350.359 38.2578 351.195 36.9453 352.32 36.0078C353.445 35.0547 354.703 34.5781 356.094 34.5781C357.094 34.5781 357.859 34.6875 358.391 34.9062V38.8906ZM382.484 59H378.641V45.3125C378.641 40.2188 376.781 37.6719 373.062 37.6719C371.141 37.6719 369.547 38.3984 368.281 39.8516C367.031 41.2891 366.406 43.1094 366.406 45.3125V59H362.562V35H366.406V38.9844H366.5C368.312 35.9531 370.938 34.4375 374.375 34.4375C377 34.4375 379.008 35.2891 380.398 36.9922C381.789 38.6797 382.484 41.125 382.484 44.3281V59ZM388.297 58.1328V54.0078C390.391 55.5547 392.695 56.3281 395.211 56.3281C398.586 56.3281 400.273 55.2031 400.273 52.9531C400.273 52.3125 400.125 51.7734 399.828 51.3359C399.547 50.8828 399.156 50.4844 398.656 50.1406C398.172 49.7969 397.594 49.4922 396.922 49.2266C396.266 48.9453 395.555 48.6562 394.789 48.3594C393.727 47.9375 392.789 47.5156 391.977 47.0938C391.18 46.6562 390.508 46.1719 389.961 45.6406C389.43 45.0938 389.023 44.4766 388.742 43.7891C388.477 43.1016 388.344 42.2969 388.344 41.375C388.344 40.25 388.602 39.2578 389.117 38.3984C389.633 37.5234 390.32 36.7969 391.18 36.2188C392.039 35.625 393.016 35.1797 394.109 34.8828C395.219 34.5859 396.359 34.4375 397.531 34.4375C399.609 34.4375 401.469 34.7969 403.109 35.5156V39.4062C401.344 38.25 399.312 37.6719 397.016 37.6719C396.297 37.6719 395.648 37.7578 395.07 37.9297C394.492 38.0859 393.992 38.3125 393.57 38.6094C393.164 38.9062 392.844 39.2656 392.609 39.6875C392.391 40.0938 392.281 40.5469 392.281 41.0469C392.281 41.6719 392.391 42.1953 392.609 42.6172C392.844 43.0391 393.18 43.4141 393.617 43.7422C394.055 44.0703 394.586 44.3672 395.211 44.6328C395.836 44.8984 396.547 45.1875 397.344 45.5C398.406 45.9062 399.359 46.3281 400.203 46.7656C401.047 47.1875 401.766 47.6719 402.359 48.2188C402.953 48.75 403.406 49.3672 403.719 50.0703C404.047 50.7734 404.211 51.6094 404.211 52.5781C404.211 53.7656 403.945 54.7969 403.414 55.6719C402.898 56.5469 402.203 57.2734 401.328 57.8516C400.453 58.4297 399.445 58.8594 398.305 59.1406C397.164 59.4219 395.969 59.5625 394.719 59.5625C392.25 59.5625 390.109 59.0859 388.297 58.1328Z" fill="currentColor"/></g></svg>