<svg xmlns="http://www.w3.org/2000/svg" xmlns:xlink="http://www.w3.org/1999/xlink" viewBox="0 0 1224.90113 259.80762">
    <defs>
        <clipPath id="a">
            <path d="M77.2035,257.80762a7.68522,7.68522,0,0,0,6.9282,0l68.0718-39.30127a7.68521,7.68521,0,0,0,3.4641-6l0-165.20508a7.68524,7.68524,0,0,0-3.4641-6L84.13173,2a7.68522,7.68522,0,0,0-6.9282,0L9.13173,41.30127a7.68521,7.68521,0,0,0-3.4641,6l0,165.20508a7.68524,7.68524,0,0,0,3.4641,6Z" fill="none"/>
        </clipPath>
    </defs>
    <g>
        <g clip-path="url(#a)">
            <g>
                <polygon points="155.668 216.506 155.668 43.301 80.668 0 5.668 43.301 5.668 216.612 80.668 259.807 155.668 216.506" fill="#005a9e"/>
                <polygon points="5.668 43.301 80.668 86.603 155.668 43.301 80.668 0 5.668 43.301" fill="#2b88d8"/>
                <polygon points="80.668 259.913 80.668 86.603 5.668 43.301 5.668 216.612 80.668 259.913" fill="#0078d4"/>
                <polygon points="80.668 86.603 155.668 129.904 80.668 173.205 80.668 86.603" fill="#106ebe"/>
                <polygon points="80.668 173.205 155.668 216.506 80.668 259.808 80.668 173.205" fill="#106ebe"/>
            </g>
        </g>
        <g>
            <path d="M329.22476,98.51834H292.10757v25.8208H326.217v19.21875H292.10757v40.8584H268.41421V79.22635h60.81055Z"/>
            <path d="M367.442,184.41629H344.26236V73.21121H367.442Z"/>
            <path d="M458.32827,184.41629H435.22134V172.97293h-.3667q-8.58252,13.27734-22.96,13.27734-26.11524,0-26.11377-31.61621V109.30154h23.10645v43.27881q0,15.91846,12.61718,15.918a12.4794,12.4794,0,0,0,9.97608-4.36426q3.74121-4.36377,3.74072-11.84668V109.30154h23.10693Z"/>
            <path d="M545.32632,153.46121h-49.001q1.17335,16.35791,20.61231,16.35742a40.23512,40.23512,0,0,0,21.78613-5.86816v16.72461q-10.4165,5.5752-27.06738,5.57519-18.19337,0-28.24121-10.08593-10.0503-10.08546-10.04981-28.13184,0-18.70532,10.85645-29.63477A36.16907,36.16907,0,0,1,510.923,107.46756q16.43115,0,25.417,9.75635,8.98536,9.75659,8.98633,26.48047Zm-21.49316-14.23144q0-16.136-13.05664-16.1377a12.46639,12.46639,0,0,0-9.64649,4.62158,20.97794,20.97794,0,0,0-4.95117,11.51612Z"/>
            <path d="M631.66421,184.41629H608.55777V142.678q0-17.45729-12.47071-17.4585a12.37047,12.37047,0,0,0-9.90234,4.6211,17.60362,17.60362,0,0,0-3.88867,11.73681v42.83887H559.11636V109.30154h23.17969v11.8833H582.59q8.28809-13.71606,24.13379-13.71728,24.939,0,24.94043,30.95557Z"/>
            <path d="M695.40835,183.53641q-5.13575,2.71289-15.47754,2.71386-24.501,0-24.5-25.4541V126.39334H643.25406v-17.0918h12.17675V93.09012l23.10645-6.60157v22.813h16.87109v17.0918H678.53726V156.762q0,11.73633,9.31543,11.73633a15.7,15.7,0,0,0,7.55566-2.12695Z"/>
            <path d="M753.94546,184.41629V79.22635H783.8732q13.645,0,21.63964,6.67529a21.5764,21.5764,0,0,1,7.9961,17.38477,25.58024,25.58024,0,0,1-4.8418,15.55127,26.10344,26.10344,0,0,1-13.35058,9.38916v.29345q10.63623,1.248,17.01855,8.03223,6.38087,6.7859,6.38184,17.64209,0,13.49707-9.68262,21.85937-9.68262,8.3628-24.42774,8.36231Zm12.32324-94.04v33.96289h12.61719q10.12207,0,15.917-4.87793,5.79492-4.87719,5.79493-13.75391,0-15.33032-20.17188-15.33105Zm0,45.03955v37.85108h16.72461q10.856,0,16.835-5.13477,5.978-5.13428,5.97852-14.084,0-18.63282-25.38086-18.63233Z"/>
            <path d="M850.47964,184.41629H838.44937V73.21121h12.03027Z"/>
            <path d="M906.22866,186.177q-16.65234,0-26.59082-10.52637-9.94042-10.5249-9.93945-27.91113,0-18.92578,10.34277-29.562,10.34327-10.63549,27.94825-10.63623,16.79736,0,26.22363,10.34277,9.4248,10.34327,9.42676,28.68164,0,17.97217-10.16016,28.791Q923.31948,186.17753,906.22866,186.177Zm.87989-68.51318q-11.58984,0-18.33789,7.88574-6.75,7.886-6.749,21.74951,0,13.35205,6.82227,21.05274,6.82178,7.70214,18.26465,7.70214,11.66454,0,17.93554-7.55566,6.27247-7.5542,6.27149-21.49219,0-14.08448-6.27149-21.71338Q918.77163,117.66458,907.10855,117.66385Z"/>
            <path d="M1014.05874,180.969q-8.65575,5.20752-20.53906,5.208-16.06494,0-25.93066-10.45312-9.86719-10.45312-9.86621-27.1045,0-18.55737,10.63671-29.81836,10.63478-11.25951,28.3877-11.25976a39.51978,39.51978,0,0,1,17.458,3.66748V123.5325a30.58915,30.58915,0,0,0-17.89844-5.86865,24.18842,24.18842,0,0,0-18.88867,8.25244q-7.37109,8.25219-7.37207,21.67578,0,13.20409,6.93261,20.833,6.93165,7.63036,18.59473,7.6289a30.14956,30.14956,0,0,0,18.48535-6.52832Z"/>
            <path d="M1094.60269,184.41629h-16.87207l-33.15625-36.08984h-.293v36.08984h-12.03027V73.21121h12.03027v70.49317h.293l31.543-34.40284h15.7705l-34.84277,36.23682Z"/>
            <path d="M1102.37808,181.70242V168.79227a35.60315,35.60315,0,0,0,21.63965,7.26171q15.84375,0,15.84472-10.56347a9.16925,9.16925,0,0,0-1.35742-5.09766,13.53141,13.53141,0,0,0-3.668-3.7041,28.24088,28.24088,0,0,0-5.42773-2.89746q-3.11865-1.28321-6.71192-2.67774a86.18315,86.18315,0,0,1-8.7666-3.998,26.44913,26.44913,0,0,1-6.30761-4.54785,16.89188,16.89188,0,0,1-3.81446-5.7583,20.35381,20.35381,0,0,1-1.28418-7.55518,17.9455,17.9455,0,0,1,2.4209-9.353,21.45434,21.45434,0,0,1,6.45508-6.82177,30.1028,30.1028,0,0,1,9.20605-4.14454,40.86945,40.86945,0,0,1,10.67286-1.39355,43.11439,43.11439,0,0,1,17.458,3.374v12.17676a34.0275,34.0275,0,0,0-19.07129-5.42822,22.28181,22.28181,0,0,0-6.08886.77051,14.91829,14.91829,0,0,0-4.65821,2.16357,9.99448,9.99448,0,0,0-3.00683,3.33789,8.78476,8.78476,0,0,0-1.06445,4.291,10.28137,10.28137,0,0,0,1.06445,4.915,10.80062,10.80062,0,0,0,3.11719,3.521,23.7704,23.7704,0,0,0,4.98828,2.7876q2.93262,1.248,6.6748,2.71387a93.17594,93.17594,0,0,1,8.94922,3.9248,30.70885,30.70885,0,0,1,6.749,4.54785,17.78463,17.78463,0,0,1,4.291,5.83106,18.82128,18.82128,0,0,1,1.50391,7.84961,18.50053,18.50053,0,0,1-2.458,9.68261,21.0482,21.0482,0,0,1-6.56445,6.82129,30.07194,30.07194,0,0,1-9.4629,4.03516,46.74739,46.74739,0,0,1-11.22363,1.32031Q1110.8854,186.177,1102.37808,181.70242Z"/>
        </g>
    </g>
</svg>
