<svg xmlns="http://www.w3.org/2000/svg" xmlns:xlink="http://www.w3.org/1999/xlink" viewBox="0 0 19 32">
  <defs>
    <clipPath id="a">
      <path d="M9.07535,31.67931a.94207.94207,0,0,0,.8493,0l8.3447-4.81781A.94212.94212,0,0,0,18.694,26.126V5.874a.94211.94211,0,0,0-.42465-.73552L9.92465.32069a.94207.94207,0,0,0-.8493,0L.73065,5.1385A.94212.94212,0,0,0,.306,5.874V26.126a.94211.94211,0,0,0,.42465.73552Z" fill="none"/>
    </clipPath>
  </defs>
  <g clip-path="url(#a)">
    <g>
      <polygon points="18.694 26.616 18.694 5.384 9.5 0.076 0.306 5.384 0.306 26.629 9.5 31.924 18.694 26.616" fill="#005a9e"/>
      <polygon points="0.306 5.384 9.5 10.692 18.694 5.384 9.5 0.076 0.306 5.384" fill="#2b88d8"/>
      <polygon points="9.5 31.937 9.5 10.692 0.306 5.384 0.306 26.629 9.5 31.937" fill="#0078d4"/>
      <polygon points="9.5 10.692 18.694 16 9.5 21.308 9.5 10.692" fill="#106ebe"/>
      <polygon points="9.5 21.308 18.694 26.616 9.5 31.924 9.5 21.308" fill="#106ebe"/>
    </g>
  </g>
</svg>
